<?xml version="1.0" encoding="UTF-8" standalone="no"?><!DOCTYPE svg PUBLIC "-//W3C//DTD SVG 1.1//EN" "http://www.w3.org/Graphics/SVG/1.1/DTD/svg11.dtd"><svg width="100%" height="100%" viewBox="0 0 221 192" version="1.1" xmlns="http://www.w3.org/2000/svg" xmlns:xlink="http://www.w3.org/1999/xlink" xml:space="preserve" style="fill-rule:evenodd;clip-rule:evenodd;stroke-linejoin:round;stroke-miterlimit:1.41421;"><g id="Logo"><path d="M53.564,5.059l115.736,0l41.464,83.954l-56.85,98.245l-84.069,0.648l-60.622,-103.393l44.341,-79.454Z" style="fill:#6ff700;"/><path d="M189.112,41.154l30.783,51.838l-55.473,97.934l-38.38,0.632l13.017,-85.605l50.053,-64.799Z" style="fill:#09b100;"/><path d="M31.446,41.154l-30.783,51.838l55.474,97.934l38.38,0.632l-13.018,-85.605l-50.053,-64.799Z" style="fill:#09b100;"/><path d="M95.776,83.557l15.09,24.871l15.168,-24.796l-30.258,-0.075Z" style="fill:#eaff02;"/><path d="M43.115,0.496l66.531,42.789l71.424,-42.763l-137.955,-0.026Z" style="fill:#09b100;"/><path d="M139.222,105.758l80.719,-12.706l-54.641,97.652l-39.202,0.263l13.124,-85.209Z" style="fill:#03a700;"/><path d="M81.336,105.758l-80.718,-12.706l54.64,97.652l39.202,0.263l-13.124,-85.209Z" style="fill:#03a700;"/></g></svg>